<?xml version="1.0" encoding="UTF-8"?>
<svg id="Logomarks" xmlns="http://www.w3.org/2000/svg" viewBox="0 0 1024 1024">
  <g id="Black">
    <path d="M346.52,602.52l165.48,165.48-256,256L0,768V256L256,0l256,256-165.48,165.48c-50.02,50.02-50.02,131.02,0,181.04Z"/>
    <path d="M1024,256v512l-256,256-256-256,165.48-165.48c50.02-50.02,50.02-131.02,0-181.04l-165.48-165.48L768,0l256,256Z"/>
    <path d="M640,512c-70.71,0-128,57.29-128,128,0-70.71-57.29-128-128-128,70.71,0,128-57.29,128-128,0,70.71,57.29,128,128,128Z"/>
  </g>
</svg>